<svg width="24" height="25" viewBox="0 0 24 25" fill="none" xmlns="http://www.w3.org/2000/svg">
<rect y="0.600098" width="24" height="24" rx="12" fill="#1C1399"/>
<path d="M17.8668 8.22678C17.9735 8.33345 18.0268 8.45789 18.0268 8.60012C18.0268 8.74234 17.9735 8.86678 17.8668 8.97345L10.8802 15.9601C10.7735 16.0668 10.6491 16.1201 10.5068 16.1201C10.3646 16.1201 10.2402 16.0668 10.1335 15.9601L6.66684 12.4401C6.56017 12.369 6.50684 12.2623 6.50684 12.1201C6.50684 11.9779 6.55128 11.8535 6.64017 11.7468C6.72906 11.6401 6.84461 11.5868 6.98684 11.5868C7.12906 11.5868 7.2535 11.6401 7.36017 11.7468L10.5068 14.8935L17.1202 8.22678C17.2268 8.15567 17.3513 8.12012 17.4935 8.12012C17.6357 8.12012 17.7602 8.15567 17.8668 8.22678Z" fill="white"/>
</svg>
