<svg width="61" height="60" viewBox="0 0 61 60" fill="none" xmlns="http://www.w3.org/2000/svg">
<rect x="0.669922" width="60" height="60" rx="30" fill="white"/>
<g clip-path="url(#clip0_2020_358)">
<path d="M19.1699 15.25C19.9032 14.5167 20.7532 14.1834 21.7199 14.25C22.6866 14.3167 23.4699 14.75 24.0699 15.55L27.4699 19.85C27.8032 20.25 28.0199 20.7 28.1199 21.2C28.2199 21.7 28.2032 22.1834 28.0699 22.65L27.0699 26.75C26.9366 27.2167 27.0366 27.6167 27.3699 27.95L31.9699 32.55C32.3032 32.8834 32.7032 32.9834 33.1699 32.85L37.2699 31.85C37.7366 31.7167 38.2199 31.7 38.7199 31.8C39.2199 31.9 39.6699 32.1167 40.0699 32.45L44.3699 35.85C45.1699 36.45 45.6032 37.2334 45.6699 38.2C45.7366 39.1667 45.4032 40.0167 44.6699 40.75L42.7699 42.65C42.0366 43.3834 41.1866 43.8667 40.2199 44.1C39.2532 44.3334 38.3032 44.2834 37.3699 43.95C32.3699 42.2167 27.9866 39.4667 24.2199 35.7C20.4532 31.9334 17.7032 27.55 15.9699 22.55C15.6366 21.6167 15.5866 20.6667 15.8199 19.7C16.0532 18.7334 16.5366 17.8834 17.2699 17.15L19.1699 15.25ZM36.2699 15.15C36.2699 14.8834 36.3699 14.6667 36.5699 14.5C36.7699 14.3334 37.0032 14.25 37.2699 14.25H44.7699C45.0366 14.25 45.2532 14.3334 45.4199 14.5C45.5866 14.6667 45.6699 14.8834 45.6699 15.15V22.65C45.6699 22.9167 45.5866 23.15 45.4199 23.35C45.2532 23.55 45.0366 23.65 44.7699 23.65C44.5032 23.65 44.2699 23.55 44.0699 23.35C43.8699 23.15 43.7699 22.9167 43.7699 22.65V17.45L36.0699 25.25C35.8699 25.45 35.6366 25.55 35.3699 25.55C35.1032 25.55 34.8699 25.45 34.6699 25.25C34.4699 25.05 34.3699 24.8167 34.3699 24.55C34.3699 24.2834 34.4699 24.05 34.6699 23.85L42.4699 16.15H37.2699C37.0032 16.15 36.7699 16.05 36.5699 15.85C36.3699 15.65 36.2699 15.4167 36.2699 15.15Z" fill="#00FFB2"/>
</g>
<defs>
<clipPath id="clip0_2020_358">
<rect width="30" height="30" fill="white" transform="matrix(1 0 0 -1 15.6699 44.25)"/>
</clipPath>
</defs>
</svg>
