 <svg width="20" height="25" viewBox="0 0 20 25" fill="none" xmlns="http://www.w3.org/2000/svg">
                            <mask id="path-1-inside-1_2020_861" fill="white">
                            <path d="M0 12.1899C0 6.66709 4.47715 2.18994 10 2.18994C15.5228 2.18994 20 6.66709 20 12.1899C20 17.7128 15.5228 22.1899 10 22.1899C4.47715 22.1899 0 17.7128 0 12.1899Z"/>
                            </mask>
                            <path d="M0 12.1899C0 6.66709 4.47715 2.18994 10 2.18994C15.5228 2.18994 20 6.66709 20 12.1899C20 17.7128 15.5228 22.1899 10 22.1899C4.47715 22.1899 0 17.7128 0 12.1899Z" fill="#DBD9F8"/>
                            <path d="M10 21.1899C5.02944 21.1899 1 17.1605 1 12.1899H-1C-1 18.2651 3.92487 23.1899 10 23.1899V21.1899ZM19 12.1899C19 17.1605 14.9706 21.1899 10 21.1899V23.1899C16.0751 23.1899 21 18.2651 21 12.1899H19ZM10 3.18994C14.9706 3.18994 19 7.21938 19 12.1899H21C21 6.11481 16.0751 1.18994 10 1.18994V3.18994ZM10 1.18994C3.92487 1.18994 -1 6.11481 -1 12.1899H1C1 7.21938 5.02944 3.18994 10 3.18994V1.18994Z" fill="#9692CC" mask="url(#path-1-inside-1_2020_861)"/>
                            <path d="M15.8668 7.81663C15.9735 7.92329 16.0268 8.04774 16.0268 8.18996C16.0268 8.33218 15.9735 8.45663 15.8668 8.56329L8.88017 15.55C8.7735 15.6566 8.64906 15.71 8.50684 15.71C8.36461 15.71 8.24017 15.6566 8.1335 15.55L4.66684 12.03C4.56017 11.9588 4.50684 11.8522 4.50684 11.71C4.50684 11.5677 4.55128 11.4433 4.64017 11.3366C4.72906 11.23 4.84461 11.1766 4.98684 11.1766C5.12906 11.1766 5.2535 11.23 5.36017 11.3366L8.50684 14.4833L15.1202 7.81663C15.2268 7.74552 15.3513 7.70996 15.4935 7.70996C15.6357 7.70996 15.7602 7.74552 15.8668 7.81663Z" fill="#1C1399"/>
                            </svg>