<?xml version="1.0" encoding="UTF-8"?>
<svg id="Layer_2" data-name="Layer 2" xmlns="http://www.w3.org/2000/svg" xmlns:xlink="http://www.w3.org/1999/xlink" viewBox="0 0 216.85 202.09">
  <defs>
    <style>
      .cls-1 {
        fill: #48daff;
      }

      .cls-2 {
        fill: #b75fff;
      }

      .cls-3 {
        fill: #fff;
      }

      .cls-4 {
        fill: url(#linear-gradient);
      }
    </style>
    <linearGradient id="linear-gradient" x1="23.98" y1="17" x2="182.97" y2="186.37" gradientUnits="userSpaceOnUse">
      <stop offset="0" stop-color="#4ae8fe"/>
      <stop offset="1" stop-color="#bc59f9"/>
    </linearGradient>
  </defs>
  <g id="Layer_2-2" data-name="Layer 2">
    <g>
      <g>
        <path class="cls-3" d="M126.71,107.69c-1.77-1.77-2.75-4.13-2.75-6.64s.98-4.87,2.75-6.64L193.7,27.42c2.69-2.68,4.17-6.26,4.17-10.09s-1.48-7.4-4.17-10.09c-2.69-2.68-6.27-4.16-10.08-4.16s-7.4,1.48-10.09,4.16l-60.52,60.53c-1.91,1.91-4.46,2.97-7.16,2.97s-5.25-1.05-7.16-2.97L35.09,4.17c-2.69-2.69-6.27-4.17-10.08-4.17s-7.4,1.48-10.08,4.17c-2.69,2.69-4.17,6.28-4.17,10.1,0,3.82,1.48,7.4,4.18,10.08,0,0,45.28,45.06,67.96,67.65,2.42,2.41,3.76,5.63,3.76,9.05s-1.33,6.63-3.76,9.05c-22.68,22.58-67.96,67.65-67.97,67.66-2.69,2.68-4.17,6.27-4.17,10.09s1.48,7.4,4.17,10.08c2.69,2.69,6.27,4.17,10.08,4.17s7.4-1.48,10.08-4.17l61.08-61.07c2.59-2.59,6.02-4.01,9.68-4.01s7.1,1.42,9.68,4.01l58,58c2.69,2.69,6.27,4.17,10.09,4.17s7.4-1.48,10.08-4.16c2.69-2.68,4.17-6.26,4.17-10.09s-1.48-7.41-4.17-10.08l-66.99-66.99Z"/>
        <path class="cls-3" d="M28.11,123.23c-1.96,2.04-3,4.73-2.94,7.56.06,2.83,1.22,5.47,3.26,7.42,1.98,1.9,4.58,2.94,7.33,2.94s5.66-1.19,7.65-3.27c9.68-10.1,14.85-23.36,14.55-37.33-.3-13.97-6.03-27-16.13-36.68-1.98-1.9-4.58-2.94-7.33-2.94s-5.66,1.19-7.65,3.27c-4.04,4.22-3.9,10.94.32,14.98,6.02,5.76,9.43,13.52,9.6,21.83.18,8.31-2.9,16.2-8.66,22.22Z"/>
        <path class="cls-3" d="M19.16,129.63c7.52-7.85,11.53-18.14,11.3-29-.23-10.85-4.68-20.97-12.53-28.49-1.98-1.9-4.58-2.94-7.33-2.94s-5.66,1.19-7.65,3.27C.99,74.5-.06,77.19,0,80.02c.06,2.83,1.22,5.47,3.26,7.42,3.75,3.59,5.87,8.43,5.98,13.64.11,5.21-1.8,10.14-5.39,13.88-1.96,2.04-3,4.73-2.94,7.56s1.22,5.47,3.26,7.43c1.98,1.9,4.58,2.94,7.33,2.94s5.66-1.19,7.65-3.27Z"/>
        <path class="cls-3" d="M173.44,64.2c-9.68,10.1-14.85,23.36-14.55,37.33.3,13.97,6.03,27,16.13,36.68,1.98,1.9,4.58,2.94,7.33,2.94s5.66-1.19,7.65-3.27c4.04-4.22,3.9-10.94-.32-14.98-6.01-5.76-9.43-13.52-9.6-21.83-.18-8.31,2.9-16.2,8.66-22.22,1.96-2.04,3-4.73,2.94-7.56s-1.22-5.47-3.26-7.43c-1.98-1.9-4.58-2.94-7.33-2.94s-5.66,1.19-7.65,3.27Z"/>
        <path class="cls-3" d="M213.59,114.65c-7.75-7.43-8.01-19.77-.59-27.52,1.96-2.04,3-4.73,2.94-7.56s-1.22-5.47-3.26-7.42c-1.98-1.9-4.58-2.95-7.33-2.95s-5.66,1.19-7.65,3.27c-15.51,16.19-14.96,41.98,1.23,57.49,1.98,1.9,4.58,2.94,7.33,2.94s5.66-1.19,7.65-3.27c1.96-2.04,3-4.73,2.94-7.56-.06-2.83-1.22-5.47-3.26-7.42Z"/>
      </g>
      <path class="cls-4" d="M190.17,178.22c1.81,1.8,2.7,4.17,2.7,6.55s-.9,4.75-2.7,6.55c-3.61,3.61-9.5,3.61-13.1,0l-58-58c-7.3-7.3-19.14-7.3-26.44,0l-61.08,61.07c-1.8,1.8-4.17,2.7-6.55,2.7s-4.75-.9-6.55-2.7c-3.61-3.6-3.61-9.5,0-13.1,0,0,45.28-45.07,67.96-67.66,6.97-6.94,6.97-18.23,0-25.18C63.75,65.87,18.46,20.81,18.46,20.81c-3.61-3.6-3.61-9.5,0-13.1,1.8-1.8,4.17-2.7,6.55-2.7s4.75.9,6.55,2.7l63.6,63.6c5.91,5.91,15.48,5.91,21.39,0l60.52-60.53c3.61-3.6,9.5-3.6,13.1,0,1.81,1.81,2.7,4.17,2.7,6.56s-.9,4.75-2.7,6.55l-66.99,66.99c-5.62,5.62-5.62,14.74,0,20.36l66.99,66.99Z"/>
      <path class="cls-1" d="M35.76,136.15c-1.39,0-2.79-.52-3.87-1.56-2.23-2.14-2.31-5.68-.17-7.91,6.69-6.98,10.26-16.14,10.05-25.79-.21-9.65-4.16-18.65-11.14-25.33-2.23-2.14-2.31-5.68-.17-7.91,2.14-2.23,5.68-2.31,7.91-.17,9.14,8.76,14.32,20.54,14.59,33.18.27,12.64-4.4,24.63-13.16,33.77-1.1,1.15-2.57,1.72-4.04,1.72Z"/>
      <path class="cls-1" d="M11.5,127.89c-1.39,0-2.79-.52-3.87-1.56-2.23-2.14-2.31-5.68-.17-7.91,9.33-9.74,9-25.26-.74-34.59-2.23-2.14-2.31-5.68-.17-7.91,2.14-2.23,5.68-2.31,7.91-.17,6.88,6.59,10.78,15.47,10.99,24.99.2,9.52-3.32,18.55-9.91,25.43-1.1,1.15-2.57,1.72-4.04,1.72Z"/>
      <path class="cls-2" d="M182.35,136.15c-1.39,0-2.79-.52-3.87-1.56-9.14-8.76-14.32-20.54-14.59-33.18-.27-12.64,4.4-24.63,13.16-33.77,2.14-2.23,5.68-2.31,7.91-.17,2.23,2.14,2.31,5.68.17,7.91-6.69,6.98-10.26,16.14-10.05,25.79.21,9.65,4.16,18.65,11.14,25.33,2.23,2.14,2.31,5.68.17,7.91-1.1,1.15-2.57,1.72-4.04,1.72Z"/>
      <path class="cls-2" d="M206.25,127.89c-1.39,0-2.79-.52-3.87-1.56-14.2-13.6-14.68-36.22-1.08-50.42,2.14-2.23,5.68-2.31,7.91-.17,2.23,2.14,2.31,5.68.17,7.91-9.33,9.74-9,25.26.74,34.59,2.23,2.14,2.31,5.68.17,7.91-1.1,1.15-2.57,1.72-4.04,1.72Z"/>
    </g>
  </g>
</svg>