<svg width="40" height="40" viewBox="0 0 40 40" fill="none" xmlns="http://www.w3.org/2000/svg">
<rect width="40" height="40" rx="20" fill="white"/>
<g clip-path="url(#clip0_2020_716)">
<path d="M12 13.12C12 12.8356 12.1156 12.5778 12.3467 12.3467C12.5778 12.1156 12.8533 12 13.1733 12H26.8267C27.1467 12 27.4222 12.1156 27.6533 12.3467C27.8844 12.5778 28 12.8356 28 13.12V26.88C28 27.1644 27.8844 27.4222 27.6533 27.6533C27.4222 27.8844 27.1467 28 26.8267 28H13.1733C12.8533 28 12.5778 27.8844 12.3467 27.6533C12.1156 27.4222 12 27.1644 12 26.88V13.12ZM16.96 25.3867V18.1867H14.56V25.3867H16.96ZM15.7333 17.1733C16.16 17.1733 16.4978 17.0578 16.7467 16.8267C16.9956 16.5956 17.1111 16.3022 17.0933 15.9467C17.0756 15.5911 16.9511 15.2889 16.72 15.04C16.4889 14.7911 16.1689 14.6667 15.76 14.6667C15.3511 14.6667 15.0222 14.7911 14.7733 15.04C14.5244 15.2889 14.4 15.5911 14.4 15.9467C14.4 16.3022 14.5244 16.5956 14.7733 16.8267C15.0222 17.0578 15.3422 17.1733 15.7333 17.1733ZM20.64 25.3867V21.3333C20.64 21.0844 20.6756 20.8889 20.7467 20.7467C20.8178 20.5333 20.96 20.3378 21.1733 20.16C21.3867 19.9822 21.6533 19.8933 21.9733 19.8933C22.4 19.8933 22.7111 20.0356 22.9067 20.32C23.1022 20.6044 23.2 21.0133 23.2 21.5467V25.3867H25.6V21.2267C25.6 20.16 25.3422 19.3511 24.8267 18.8C24.3111 18.2489 23.6444 17.9733 22.8267 17.9733C22.2578 17.9733 21.7778 18.1156 21.3867 18.4C21.1022 18.5778 20.8533 18.8444 20.64 19.2V18.1867H18.24C18.2756 18.4711 18.2756 19.7511 18.24 22.0267V25.3867H20.64Z" fill="#030014"/>
</g>
<defs>
<clipPath id="clip0_2020_716">
<rect width="16" height="16" fill="white" transform="matrix(1 0 0 -1 12 28)"/>
</clipPath>
</defs>
</svg>
